<?xml version="1.0" encoding="UTF-8"?>
<svg xmlns="http://www.w3.org/2000/svg" xmlns:xlink="http://www.w3.org/1999/xlink" width="500pt" height="500pt" viewBox="0 0 500 500" version="1.1">
<g id="surface1">
<path style=" stroke:none;fill-rule:nonzero;fill:#363636;fill-opacity:1;" d="M 248.015625 19.839844 C 122.1875 19.839844 19.839844 122.1875 19.839844 248.015625 C 19.839844 373.84375 122.1875 476.191406 248.015625 476.191406 C 373.84375 476.191406 476.191406 373.84375 476.191406 248.015625 C 476.191406 122.1875 373.84375 19.839844 248.015625 19.839844 Z M 347.222656 317.460938 L 148.808594 317.460938 C 143.34375 317.460938 138.890625 313.042969 138.890625 307.539063 C 138.890625 302.035156 143.34375 297.617188 148.808594 297.617188 L 347.222656 297.617188 C 352.726563 297.617188 357.144531 302.035156 357.144531 307.539063 C 357.144531 313.042969 352.726563 317.460938 347.222656 317.460938 Z M 347.222656 257.9375 L 148.808594 257.9375 C 143.34375 257.9375 138.890625 253.480469 138.890625 248.015625 C 138.890625 242.550781 143.34375 238.09375 148.808594 238.09375 L 347.222656 238.09375 C 352.726563 238.09375 357.144531 242.550781 357.144531 248.015625 C 357.144531 253.480469 352.726563 257.9375 347.222656 257.9375 Z M 347.222656 198.414063 L 148.808594 198.414063 C 143.34375 198.414063 138.890625 193.957031 138.890625 188.492188 C 138.890625 183.027344 143.34375 178.570313 148.808594 178.570313 L 347.222656 178.570313 C 352.726563 178.570313 357.144531 183.027344 357.144531 188.492188 C 357.144531 193.957031 352.726563 198.414063 347.222656 198.414063 Z "/>
</g>
</svg>
